<svg width="400" height="364" viewBox="0 0 400 364" fill="none" xmlns="http://www.w3.org/2000/svg">
<path fill-rule="evenodd" clip-rule="evenodd" d="M203.376 62C178.692 62 156.006 70.5562 138.092 84.8715H109.14C105.379 84.8715 102.301 87.9592 102.301 91.733C102.301 95.5068 105.379 98.5944 109.14 98.5944H123.875H128.192C131.954 98.5944 135.031 101.682 135.031 105.456C135.031 107.341 134.261 109.06 133.021 110.3C131.785 111.544 130.071 112.317 128.192 112.317H118.981H113.894H89.0792C85.3178 112.317 82.2402 115.405 82.2402 119.179C82.2402 122.953 85.3178 126.04 89.0792 126.04H106.844C101.482 138.685 98.5111 152.597 98.5111 167.209C98.5111 172.511 98.9032 177.721 99.6555 182.812C99.9701 184.939 100.349 187.048 100.791 189.134C113.694 187.153 127.381 185.561 141.67 184.399L142.746 185.383L143.758 184.235C160.924 182.894 178.942 182.181 197.526 182.181C237.01 182.181 273.959 185.401 305.55 191C306.768 185.703 307.588 180.255 307.976 174.683C308.154 172.213 308.24 169.72 308.24 167.209C308.24 109.102 261.293 62 203.376 62Z" fill="#E6E6E6"/>
<path fill-rule="evenodd" clip-rule="evenodd" d="M68.3125 112H64.1679C60.3577 112 57.2402 115.15 57.2402 119C57.2402 122.85 60.3577 126 64.1679 126H68.3125C72.1228 126 75.2402 122.85 75.2402 119C75.2402 115.15 72.1228 112 68.3125 112Z" fill="#E6E6E6"/>
<mask id="mask0_1485_74826" style="mask-type:luminance" maskUnits="userSpaceOnUse" x="100" y="182" width="228" height="90">
<path fill-rule="evenodd" clip-rule="evenodd" d="M327.17 182.332V272H213.909H100.648V182.332H327.17Z" fill="white"/>
</mask>
<g mask="url(#mask0_1485_74826)">
<path fill-rule="evenodd" clip-rule="evenodd" d="M327.17 217C327.17 220.75 324.093 223.818 320.332 223.818H276.66C274.782 223.818 273.068 224.587 271.833 225.823C270.593 227.055 269.822 228.764 269.822 230.637C269.822 234.387 272.899 237.455 276.66 237.455H284.774C286.651 237.455 288.366 238.223 289.601 239.459C290.841 240.691 291.611 242.4 291.611 244.273C291.611 248.023 288.534 251.091 284.774 251.091H266.117C248.59 264.218 226.811 272 203.209 272C152.799 272 110.699 236.523 100.648 189.241C113.548 187.273 127.232 185.691 141.518 184.537L142.593 185.514L143.605 184.373C160.767 183.041 178.781 182.332 197.36 182.332C236.834 182.332 273.774 185.532 305.358 191.096C303.823 197.723 301.653 204.105 298.918 210.182H320.332C322.215 210.182 323.92 210.95 325.16 212.187C326.399 213.418 327.17 215.127 327.17 217Z" fill="#D3D3D3"/>
</g>
<path fill-rule="evenodd" clip-rule="evenodd" d="M307.24 174.372C306.853 180.05 306.034 185.602 304.818 191C273.268 185.294 236.368 182.013 196.937 182.013C178.378 182.013 160.383 182.74 143.24 184.106L155.129 170.331L173.623 182.4L198.658 175.487L241.726 182.013L260.423 175.487L265.159 182.013L276.457 173.627L287.015 183.304L303.666 170L307.24 174.372Z" fill="#DDDCDB"/>
<g filter="url(#filter0_dd_1485_74826)">
<path fill-rule="evenodd" clip-rule="evenodd" d="M245.86 180.4C250.596 173.516 253.309 165.352 253.239 156.616C253.045 132.316 231.398 112.79 204.889 113.002C178.38 113.214 157.047 133.085 157.242 157.384C157.436 181.683 179.083 201.21 205.592 200.998C215.063 200.923 223.873 198.336 231.277 193.935L251.082 198.599L245.86 180.4Z" fill="#A5A3A3"/>
</g>
<path fill-rule="evenodd" clip-rule="evenodd" d="M191.24 155.96C191.262 158.721 189.041 160.978 186.28 161C183.518 161.022 181.262 158.801 181.24 156.04C181.218 153.279 183.439 151.023 186.2 151C188.961 150.978 191.218 153.199 191.24 155.96Z" fill="#E6E6E6"/>
<path fill-rule="evenodd" clip-rule="evenodd" d="M209.24 155.96C209.262 158.721 207.041 160.978 204.28 161C201.518 161.022 199.262 158.801 199.24 156.04C199.218 153.279 201.439 151.022 204.2 151C206.961 150.978 209.218 153.199 209.24 155.96Z" fill="#E6E6E6"/>
<path fill-rule="evenodd" clip-rule="evenodd" d="M227.24 155.96C227.262 158.721 225.041 160.977 222.28 161C219.518 161.022 217.262 158.801 217.24 156.04C217.218 153.278 219.439 151.022 222.2 151C224.961 150.978 227.218 153.199 227.24 155.96Z" fill="#E6E6E6"/>
<path fill-rule="evenodd" clip-rule="evenodd" d="M143.24 184L142.27 185L141.24 184.143C141.904 184.092 142.572 184.044 143.24 184Z" fill="#E6E6E6"/>
<g filter="url(#filter1_dd_1485_74826)">
<path fill-rule="evenodd" clip-rule="evenodd" d="M152.24 191C152.24 194.176 153.256 197.132 155.001 199.621L153.149 206.26L160.361 204.505C163.073 206.082 166.288 207 169.74 207C179.405 207 187.24 199.837 187.24 191C187.24 182.163 179.405 175 169.74 175C160.075 175 152.24 182.163 152.24 191Z" fill="#F5F8FC"/>
</g>
<path fill-rule="evenodd" clip-rule="evenodd" d="M174.24 191C174.24 192.105 175.135 193 176.24 193C177.344 193 178.24 192.105 178.24 191C178.24 189.896 177.344 189 176.24 189C175.135 189 174.24 189.896 174.24 191Z" fill="#D3D3D3"/>
<path fill-rule="evenodd" clip-rule="evenodd" d="M168.24 191C168.24 192.105 169.136 193 170.24 193C171.344 193 172.24 192.105 172.24 191C172.24 189.896 171.344 189 170.24 189C169.136 189 168.24 189.896 168.24 191Z" fill="#D3D3D3"/>
<path fill-rule="evenodd" clip-rule="evenodd" d="M161.24 191C161.24 192.105 162.136 193 163.24 193C164.344 193 165.24 192.105 165.24 191C165.24 189.896 164.344 189 163.24 189C162.136 189 161.24 189.896 161.24 191Z" fill="#D3D3D3"/>
<path fill-rule="evenodd" clip-rule="evenodd" d="M141.24 184.258C126.956 185.422 113.274 187.016 100.375 189C99.933 186.911 99.5547 184.799 99.2402 182.668L121.35 166L141.24 184.258Z" fill="#DDDCDB"/>
<path fill-rule="evenodd" clip-rule="evenodd" d="M241.24 218.5C241.24 220.433 223.779 222 202.24 222C180.701 222 163.24 220.433 163.24 218.5C163.24 216.568 180.701 215 202.24 215C223.779 215 241.24 216.568 241.24 218.5Z" fill="#D3D3D3"/>
<path fill-rule="evenodd" clip-rule="evenodd" d="M305.24 251C301.39 251 298.24 247.85 298.24 244C298.24 240.15 301.39 237 305.24 237C309.09 237 312.24 240.15 312.24 244C312.24 247.85 309.09 251 305.24 251Z" fill="#E1E3EF"/>
<path d="M129.566 334.609V316.729H131.846L141.878 330.577L140.798 330.745V316.729H143.606V334.609H141.326L131.366 320.665L132.398 320.473V334.609H129.566ZM153.309 334.897C152.061 334.897 150.917 334.601 149.877 334.009C148.853 333.417 148.037 332.609 147.429 331.585C146.821 330.561 146.517 329.401 146.517 328.105C146.517 326.793 146.821 325.633 147.429 324.625C148.037 323.601 148.853 322.801 149.877 322.225C150.901 321.633 152.045 321.337 153.309 321.337C154.589 321.337 155.733 321.633 156.741 322.225C157.765 322.801 158.573 323.601 159.165 324.625C159.773 325.633 160.077 326.793 160.077 328.105C160.077 329.417 159.773 330.585 159.165 331.609C158.557 332.633 157.741 333.441 156.717 334.033C155.693 334.609 154.557 334.897 153.309 334.897ZM153.309 332.377C154.077 332.377 154.757 332.193 155.349 331.825C155.941 331.457 156.405 330.953 156.741 330.313C157.093 329.657 157.269 328.921 157.269 328.105C157.269 327.289 157.093 326.561 156.741 325.921C156.405 325.281 155.941 324.777 155.349 324.409C154.757 324.041 154.077 323.857 153.309 323.857C152.557 323.857 151.877 324.041 151.269 324.409C150.677 324.777 150.205 325.281 149.853 325.921C149.517 326.561 149.349 327.289 149.349 328.105C149.349 328.921 149.517 329.657 149.853 330.313C150.205 330.953 150.677 331.457 151.269 331.825C151.877 332.193 152.557 332.377 153.309 332.377ZM167.184 334.609V316.729H173.688C174.888 316.729 175.944 316.953 176.856 317.401C177.784 317.833 178.504 318.473 179.016 319.321C179.528 320.153 179.784 321.153 179.784 322.321C179.784 323.473 179.52 324.465 178.992 325.297C178.48 326.129 177.768 326.769 176.856 327.217C175.944 327.665 174.888 327.889 173.688 327.889H170.016V334.609H167.184ZM170.016 325.369H173.76C174.4 325.369 174.96 325.241 175.44 324.985C175.92 324.729 176.296 324.377 176.568 323.929C176.84 323.465 176.976 322.921 176.976 322.297C176.976 321.673 176.84 321.137 176.568 320.689C176.296 320.225 175.92 319.873 175.44 319.633C174.96 319.377 174.4 319.249 173.76 319.249H170.016V325.369ZM188.231 334.897C186.983 334.897 185.839 334.601 184.799 334.009C183.775 333.417 182.959 332.609 182.351 331.585C181.743 330.561 181.439 329.401 181.439 328.105C181.439 326.793 181.743 325.633 182.351 324.625C182.959 323.601 183.775 322.801 184.799 322.225C185.823 321.633 186.967 321.337 188.231 321.337C189.511 321.337 190.655 321.633 191.663 322.225C192.687 322.801 193.495 323.601 194.087 324.625C194.695 325.633 194.999 326.793 194.999 328.105C194.999 329.417 194.695 330.585 194.087 331.609C193.479 332.633 192.663 333.441 191.639 334.033C190.615 334.609 189.479 334.897 188.231 334.897ZM188.231 332.377C188.999 332.377 189.679 332.193 190.271 331.825C190.863 331.457 191.327 330.953 191.663 330.313C192.015 329.657 192.191 328.921 192.191 328.105C192.191 327.289 192.015 326.561 191.663 325.921C191.327 325.281 190.863 324.777 190.271 324.409C189.679 324.041 188.999 323.857 188.231 323.857C187.479 323.857 186.799 324.041 186.191 324.409C185.599 324.777 185.127 325.281 184.775 325.921C184.439 326.561 184.271 327.289 184.271 328.105C184.271 328.921 184.439 329.657 184.775 330.313C185.127 330.953 185.599 331.457 186.191 331.825C186.799 332.193 187.479 332.377 188.231 332.377ZM202.446 334.897C201.118 334.897 199.95 334.569 198.942 333.913C197.95 333.257 197.254 332.377 196.854 331.273L198.942 330.289C199.294 331.025 199.774 331.609 200.382 332.041C201.006 332.473 201.694 332.689 202.446 332.689C203.086 332.689 203.606 332.545 204.006 332.257C204.406 331.969 204.606 331.577 204.606 331.081C204.606 330.761 204.518 330.505 204.342 330.313C204.166 330.105 203.942 329.937 203.67 329.809C203.414 329.681 203.15 329.585 202.878 329.521L200.838 328.945C199.718 328.625 198.878 328.145 198.318 327.505C197.774 326.849 197.502 326.089 197.502 325.225C197.502 324.441 197.702 323.761 198.102 323.185C198.502 322.593 199.054 322.137 199.758 321.817C200.462 321.497 201.254 321.337 202.134 321.337C203.318 321.337 204.374 321.633 205.302 322.225C206.23 322.801 206.886 323.609 207.27 324.649L205.182 325.633C204.926 325.009 204.518 324.513 203.958 324.145C203.414 323.777 202.798 323.593 202.11 323.593C201.518 323.593 201.046 323.737 200.694 324.025C200.342 324.297 200.166 324.657 200.166 325.105C200.166 325.409 200.246 325.665 200.406 325.873C200.566 326.065 200.774 326.225 201.03 326.353C201.286 326.465 201.55 326.561 201.822 326.641L203.934 327.265C205.006 327.569 205.83 328.049 206.406 328.705C206.982 329.345 207.27 330.113 207.27 331.009C207.27 331.777 207.062 332.457 206.646 333.049C206.246 333.625 205.686 334.081 204.966 334.417C204.246 334.737 203.406 334.897 202.446 334.897ZM215.543 334.753C214.183 334.753 213.127 334.369 212.375 333.601C211.623 332.833 211.247 331.753 211.247 330.361V324.073H208.967V321.625H209.327C209.935 321.625 210.407 321.449 210.743 321.097C211.079 320.745 211.247 320.265 211.247 319.657V318.649H213.959V321.625H216.911V324.073H213.959V330.241C213.959 330.689 214.031 331.073 214.175 331.393C214.319 331.697 214.551 331.937 214.871 332.113C215.191 332.273 215.607 332.353 216.119 332.353C216.247 332.353 216.391 332.345 216.551 332.329C216.711 332.313 216.863 332.297 217.007 332.281V334.609C216.783 334.641 216.535 334.673 216.263 334.705C215.991 334.737 215.751 334.753 215.543 334.753ZM224.454 334.897C223.126 334.897 221.958 334.569 220.95 333.913C219.958 333.257 219.262 332.377 218.862 331.273L220.95 330.289C221.302 331.025 221.782 331.609 222.39 332.041C223.014 332.473 223.702 332.689 224.454 332.689C225.094 332.689 225.614 332.545 226.014 332.257C226.414 331.969 226.614 331.577 226.614 331.081C226.614 330.761 226.526 330.505 226.35 330.313C226.174 330.105 225.95 329.937 225.678 329.809C225.422 329.681 225.158 329.585 224.886 329.521L222.846 328.945C221.726 328.625 220.886 328.145 220.326 327.505C219.782 326.849 219.51 326.089 219.51 325.225C219.51 324.441 219.71 323.761 220.11 323.185C220.51 322.593 221.062 322.137 221.766 321.817C222.47 321.497 223.262 321.337 224.142 321.337C225.326 321.337 226.382 321.633 227.31 322.225C228.238 322.801 228.894 323.609 229.278 324.649L227.19 325.633C226.934 325.009 226.526 324.513 225.966 324.145C225.422 323.777 224.806 323.593 224.118 323.593C223.526 323.593 223.054 323.737 222.702 324.025C222.35 324.297 222.174 324.657 222.174 325.105C222.174 325.409 222.254 325.665 222.414 325.873C222.574 326.065 222.782 326.225 223.038 326.353C223.294 326.465 223.558 326.561 223.83 326.641L225.942 327.265C227.014 327.569 227.838 328.049 228.414 328.705C228.99 329.345 229.278 330.113 229.278 331.009C229.278 331.777 229.07 332.457 228.654 333.049C228.254 333.625 227.694 334.081 226.974 334.417C226.254 334.737 225.414 334.897 224.454 334.897ZM240.931 334.609V326.545L234.811 316.729H238.003L242.899 324.673H241.771L246.643 316.729H249.835L243.739 326.545V334.609H240.931ZM255.516 334.897C254.22 334.897 253.068 334.601 252.06 334.009C251.068 333.401 250.292 332.585 249.732 331.561C249.172 330.521 248.892 329.361 248.892 328.081C248.892 326.769 249.172 325.609 249.732 324.601C250.308 323.593 251.076 322.801 252.036 322.225C252.996 321.633 254.084 321.337 255.3 321.337C256.276 321.337 257.148 321.505 257.916 321.841C258.684 322.177 259.332 322.641 259.86 323.233C260.388 323.809 260.788 324.473 261.06 325.225C261.348 325.977 261.492 326.777 261.492 327.625C261.492 327.833 261.484 328.049 261.468 328.273C261.452 328.497 261.42 328.705 261.372 328.897H251.028V326.737H259.836L258.54 327.721C258.7 326.937 258.644 326.241 258.372 325.633C258.116 325.009 257.716 324.521 257.172 324.169C256.644 323.801 256.02 323.617 255.3 323.617C254.58 323.617 253.94 323.801 253.38 324.169C252.82 324.521 252.388 325.033 252.084 325.705C251.78 326.361 251.66 327.161 251.724 328.105C251.644 328.985 251.764 329.753 252.084 330.409C252.42 331.065 252.884 331.577 253.476 331.945C254.084 332.313 254.772 332.497 255.54 332.497C256.324 332.497 256.988 332.321 257.532 331.969C258.092 331.617 258.532 331.161 258.852 330.601L261.06 331.681C260.804 332.289 260.404 332.841 259.86 333.337C259.332 333.817 258.692 334.201 257.94 334.489C257.204 334.761 256.396 334.897 255.516 334.897ZM269.754 334.753C268.394 334.753 267.338 334.369 266.586 333.601C265.834 332.833 265.458 331.753 265.458 330.361V324.073H263.178V321.625H263.538C264.146 321.625 264.618 321.449 264.954 321.097C265.29 320.745 265.458 320.265 265.458 319.657V318.649H268.17V321.625H271.122V324.073H268.17V330.241C268.17 330.689 268.242 331.073 268.386 331.393C268.53 331.697 268.762 331.937 269.082 332.113C269.402 332.273 269.818 332.353 270.33 332.353C270.458 332.353 270.602 332.345 270.762 332.329C270.922 332.313 271.074 332.297 271.218 332.281V334.609C270.994 334.641 270.746 334.673 270.474 334.705C270.202 334.737 269.962 334.753 269.754 334.753Z" fill="#737373"/>
<defs>
<filter id="filter0_dd_1485_74826" x="137.24" y="113" width="136" height="128" filterUnits="userSpaceOnUse" color-interpolation-filters="sRGB">
<feFlood flood-opacity="0" result="BackgroundImageFix"/>
<feColorMatrix in="SourceAlpha" type="matrix" values="0 0 0 0 0 0 0 0 0 0 0 0 0 0 0 0 0 0 127 0" result="hardAlpha"/>
<feMorphology radius="4" operator="erode" in="SourceAlpha" result="effect1_dropShadow_1485_74826"/>
<feOffset dy="8"/>
<feGaussianBlur stdDeviation="4"/>
<feColorMatrix type="matrix" values="0 0 0 0 0.0627451 0 0 0 0 0.0941176 0 0 0 0 0.156863 0 0 0 0.03 0"/>
<feBlend mode="normal" in2="BackgroundImageFix" result="effect1_dropShadow_1485_74826"/>
<feColorMatrix in="SourceAlpha" type="matrix" values="0 0 0 0 0 0 0 0 0 0 0 0 0 0 0 0 0 0 127 0" result="hardAlpha"/>
<feMorphology radius="4" operator="erode" in="SourceAlpha" result="effect2_dropShadow_1485_74826"/>
<feOffset dy="20"/>
<feGaussianBlur stdDeviation="12"/>
<feColorMatrix type="matrix" values="0 0 0 0 0.0627451 0 0 0 0 0.0941176 0 0 0 0 0.156863 0 0 0 0.08 0"/>
<feBlend mode="normal" in2="effect1_dropShadow_1485_74826" result="effect2_dropShadow_1485_74826"/>
<feBlend mode="normal" in="SourceGraphic" in2="effect2_dropShadow_1485_74826" result="shape"/>
</filter>
<filter id="filter1_dd_1485_74826" x="132.24" y="175" width="75" height="72" filterUnits="userSpaceOnUse" color-interpolation-filters="sRGB">
<feFlood flood-opacity="0" result="BackgroundImageFix"/>
<feColorMatrix in="SourceAlpha" type="matrix" values="0 0 0 0 0 0 0 0 0 0 0 0 0 0 0 0 0 0 127 0" result="hardAlpha"/>
<feMorphology radius="4" operator="erode" in="SourceAlpha" result="effect1_dropShadow_1485_74826"/>
<feOffset dy="8"/>
<feGaussianBlur stdDeviation="4"/>
<feColorMatrix type="matrix" values="0 0 0 0 0.0627451 0 0 0 0 0.0941176 0 0 0 0 0.156863 0 0 0 0.03 0"/>
<feBlend mode="normal" in2="BackgroundImageFix" result="effect1_dropShadow_1485_74826"/>
<feColorMatrix in="SourceAlpha" type="matrix" values="0 0 0 0 0 0 0 0 0 0 0 0 0 0 0 0 0 0 127 0" result="hardAlpha"/>
<feMorphology radius="4" operator="erode" in="SourceAlpha" result="effect2_dropShadow_1485_74826"/>
<feOffset dy="20"/>
<feGaussianBlur stdDeviation="12"/>
<feColorMatrix type="matrix" values="0 0 0 0 0.0627451 0 0 0 0 0.0941176 0 0 0 0 0.156863 0 0 0 0.08 0"/>
<feBlend mode="normal" in2="effect1_dropShadow_1485_74826" result="effect2_dropShadow_1485_74826"/>
<feBlend mode="normal" in="SourceGraphic" in2="effect2_dropShadow_1485_74826" result="shape"/>
</filter>
</defs>
</svg>
